<svg xmlns="http://www.w3.org/2000/svg" viewBox="0 0 1200 900" role="img" aria-labelledby="title desc">
  <title id="title">CLO interface transform and AI pose course cover</title>
  <desc id="desc">Abstract interface panels, transform handles, and an AI pose point cloud.</desc>
  <defs>
    <linearGradient id="bg" x1="0" y1="0" x2="1" y2="1"><stop stop-color="#163d57"/><stop offset="1" stop-color="#236e6d"/></linearGradient>
  </defs>
  <rect width="1600" height="900" fill="url(#bg)"/>
  <rect x="730" y="128" width="670" height="590" rx="24" fill="#f8f8f6" opacity=".12" stroke="#f8f8f6" stroke-width="3"/>
  <g fill="none" stroke="#f8f8f6" stroke-width="7">
    <rect x="815" y="232" width="266" height="228"/>
    <rect x="1126" y="232" width="188" height="228"/>
    <path d="M850 535h421M850 589h312M850 643h244" opacity=".75"/>
  </g>
  <g fill="#efb36b"><circle cx="815" cy="232" r="18"/><circle cx="1081" cy="232" r="18"/><circle cx="815" cy="460" r="18"/><circle cx="1081" cy="460" r="18"/></g>
  <g fill="none" stroke="#f8f8f6" stroke-linecap="round">
    <circle cx="1207" cy="288" r="27" stroke-width="12"/><path d="M1207 327v94m0-55-53 39m53-39 55 24m-55 31-45 79m45-79 48 79" stroke-width="15"/>
  </g>
  <g fill="#f8f8f6"><text x="116" y="130" font-family="Arial, sans-serif" font-size="30" letter-spacing="8">CLASS MATERIAL</text><text x="115" y="242" font-family="Arial, sans-serif" font-size="94" font-weight="700">CLO</text><text x="115" y="332" font-family="Arial, sans-serif" font-size="57" font-weight="700">INTERFACE REVIEW</text><text x="116" y="386" font-family="Arial, sans-serif" font-size="25" letter-spacing="3">TRANSFORM · SIMULATION · AI POSE</text></g>
  <text x="1080" y="818" text-anchor="end" fill="#f8f8f6" font-family="Arial, sans-serif" font-size="28" font-weight="700" letter-spacing="4">STUDIOCATS</text>
</svg>
