<svg xmlns="http://www.w3.org/2000/svg" viewBox="0 0 1200 900" role="img" aria-labelledby="title desc">
  <title id="title">CLO interface and menu map</title><desc id="desc">A labelled guide to the 2D and 3D windows, Object Browser, Property Editor, and menu routes.</desc>
  <rect width="1200" height="900" fill="#f1f0eb"/>
  <rect x="54" y="54" width="1092" height="792" rx="16" fill="#fff" stroke="#102848" stroke-width="4"/>
  <rect x="54" y="54" width="1092" height="74" rx="16" fill="#102848"/><text x="92" y="100" fill="#f8f8f6" font-family="Arial, sans-serif" font-size="28" font-weight="700">CLO INTERFACE · MENU MAP</text>
  <rect x="92" y="166" width="464" height="354" fill="#e5efef" stroke="#2b6670" stroke-width="3"/><text x="122" y="216" fill="#102848" font-family="Arial, sans-serif" font-size="30" font-weight="700">2D Pattern Window</text><text x="122" y="262" fill="#526078" font-family="Arial, sans-serif" font-size="22">패턴 선택 · 이동 · 변형</text><path d="M170 337h168l64 78-64 78H170l-64-78Z" fill="none" stroke="#d88830" stroke-width="8"/><circle cx="170" cy="337" r="11" fill="#d88830"/><circle cx="338" cy="493" r="11" fill="#d88830"/>
  <rect x="592" y="166" width="516" height="354" fill="#edf0f4" stroke="#526078" stroke-width="3"/><text x="622" y="216" fill="#102848" font-family="Arial, sans-serif" font-size="30" font-weight="700">3D Garment Window</text><text x="622" y="262" fill="#526078" font-family="Arial, sans-serif" font-size="22">아바타 · 의상 · 시뮬레이션 결과</text><circle cx="854" cy="333" r="42" fill="none" stroke="#2b6670" stroke-width="10"/><path d="M854 381v88m0-58-68 45m68-45 68 45m-68 13-54 74m54-74 54 74" fill="none" stroke="#2b6670" stroke-linecap="round" stroke-width="15"/>
  <rect x="92" y="568" width="464" height="222" fill="#102848"/><text x="122" y="618" fill="#f8f8f6" font-family="Arial, sans-serif" font-size="28" font-weight="700">Object Browser</text><text x="122" y="663" fill="#c9d4dd" font-family="Arial, sans-serif" font-size="22">Scene · Environment · Fabric 탭</text><text x="122" y="718" fill="#efb36b" font-family="Arial, sans-serif" font-size="22">선택할 대상의 위치를 찾는 패널</text>
  <rect x="592" y="568" width="516" height="222" fill="#fff7ea" stroke="#d88830" stroke-width="3"/><text x="622" y="618" fill="#102848" font-family="Arial, sans-serif" font-size="28" font-weight="700">Property Editor</text><text x="622" y="663" fill="#526078" font-family="Arial, sans-serif" font-size="22">현재 선택 대상의 설정값</text><text x="622" y="718" fill="#a86421" font-family="Arial, sans-serif" font-size="22">대상이 바뀌면 표시 항목도 바뀜</text>
</svg>
